<svg id="visual" viewBox="0 0 960 540" width="960" height="540" xmlns="http://www.w3.org/2000/svg" xmlns:xlink="http://www.w3.org/1999/xlink" version="1.1"><rect x="0" y="0" width="960" height="540" fill="#001220"></rect><defs><linearGradient id="grad1_0" x1="43.8%" y1="100%" x2="100%" y2="0%"><stop offset="14.444444444444446%" stop-color="#001220" stop-opacity="1"></stop><stop offset="85.55555555555554%" stop-color="#001220" stop-opacity="1"></stop></linearGradient></defs><defs><linearGradient id="grad2_0" x1="0%" y1="100%" x2="56.3%" y2="0%"><stop offset="14.444444444444446%" stop-color="#001220" stop-opacity="1"></stop><stop offset="85.55555555555554%" stop-color="#001220" stop-opacity="1"></stop></linearGradient></defs><g transform="translate(960, 540)"><path d="M-459 0C-424.8 -40.4 -390.6 -80.9 -370.9 -120.5C-351.3 -160.2 -346.2 -199 -333.3 -242.2C-320.5 -285.3 -299.9 -332.8 -266.9 -367.3C-233.8 -401.8 -188.4 -423.4 -141.8 -436.5C-95.3 -449.7 -47.6 -454.3 0 -459L0 0Z" fill="#FBAE3C"></path></g><g transform="translate(0, 0)"><path d="M459 0C455.1 47.7 451.3 95.4 436.5 141.8C421.8 188.3 396.2 233.5 358.4 260.4C320.6 287.3 270.7 296 233.4 321.2C196 346.3 171.2 388 134.4 413.7C97.6 439.4 48.8 449.2 0 459L0 0Z" fill="#FBAE3C"></path></g></svg>